<?xml version="1.0" encoding="UTF-8" standalone="no"?>
<svg
   viewBox="0 0 128 128"
   version="1.1"
   id="svg6"
   sodipodi:docname="logo_css3.svg"
   inkscape:version="1.4.2 (f4327f4, 2025-05-13)"
   xmlns:inkscape="http://www.inkscape.org/namespaces/inkscape"
   xmlns:sodipodi="http://sodipodi.sourceforge.net/DTD/sodipodi-0.dtd"
   xmlns="http://www.w3.org/2000/svg"
   xmlns:svg="http://www.w3.org/2000/svg">
  <defs
     id="defs6">
    <linearGradient
       id="a"
       x1="6"
       x2="235"
       y1="33"
       y2="344"
       gradientTransform="matrix(0.3122,0,0,0.3122,0.95077442,1.9343057)"
       gradientUnits="userSpaceOnUse">
      <stop
         offset="0"
         stop-color="#41d1ff"
         id="stop1" />
      <stop
         offset="1"
         stop-color="#bd34fe"
         id="stop2" />
    </linearGradient>
    <linearGradient
       id="b"
       x1="194.651"
       x2="236.076"
       y1="8.8179998"
       y2="292.98901"
       gradientTransform="matrix(0.3122,0,0,0.3122,0.95077442,1.9343057)"
       gradientUnits="userSpaceOnUse">
      <stop
         offset="0"
         stop-color="#ffea83"
         id="stop3" />
      <stop
         offset=".083"
         stop-color="#ffdd35"
         id="stop4" />
      <stop
         offset="1"
         stop-color="#ffa800"
         id="stop5" />
    </linearGradient>
  </defs>
  <sodipodi:namedview
     id="namedview6"
     pagecolor="#ffffff"
     bordercolor="#000000"
     borderopacity="0.25"
     inkscape:showpageshadow="2"
     inkscape:pageopacity="0.0"
     inkscape:pagecheckerboard="0"
     inkscape:deskcolor="#d1d1d1"
     inkscape:zoom="2.1627524"
     inkscape:cx="47.393313"
     inkscape:cy="111.20089"
     inkscape:window-width="1920"
     inkscape:window-height="1001"
     inkscape:window-x="-9"
     inkscape:window-y="-9"
     inkscape:window-maximized="1"
     inkscape:current-layer="svg6" />
  <g
     id="g6"
     transform="matrix(-1,0,0,1,128.97934,0.38459606)">
    <path
       fill="url(#a)"
       d="M 125.71677,20.517306 68.274772,123.23531 c -1.187,2.121 -4.234,2.133 -5.437,0.024 L 4.2557744,20.529306 c -1.313,-2.302 0.652,-5.087 3.261,-4.622 l 57.5039976,10.277 a 3.09,3.09 0 0 0 1.11,0 l 56.299998,-10.261 c 2.598,-0.473 4.575,2.289 3.286,4.594 z m 0,0"
       id="path5"
       style="fill:url(#a)" />
    <path
       fill="url(#b)"
       d="m 92.410772,2.4273057 -42.506,8.3280003 a 1.56,1.56 0 0 0 -1.258,1.437 l -2.617,44.168 a 1.563,1.563 0 0 0 1.91,1.614 l 11.836,-2.735 a 1.562,1.562 0 0 1 1.88,1.836 l -3.517,17.219003 a 1.562,1.562 0 0 0 1.985,1.805 l 7.308,-2.223 c 1.133,-0.344 2.223,0.652 1.985,1.812 l -5.59,27.047001 c -0.348,1.692 1.902,2.614 2.84,1.164 l 0.625,-0.968 34.639998,-69.130004 c 0.582,-1.16 -0.421,-2.48 -1.69,-2.234 l -12.184998,2.352 a 1.558,1.558 0 0 1 -1.793,-1.965 l 7.95,-27.5620003 a 1.56,1.56 0 0 0 -1.803,-1.965 z m 0,0"
       id="path6"
       style="fill:url(#b)" />
  </g>
</svg>
