<?xml version="1.0" encoding="UTF-8" standalone="no"?>
<svg
   viewBox="0 0 128 128"
   version="1.1"
   id="svg15"
   sodipodi:docname="nodejs-original.svg"
   inkscape:version="1.4.2 (f4327f4, 2025-05-13)"
   xmlns:inkscape="http://www.inkscape.org/namespaces/inkscape"
   xmlns:sodipodi="http://sodipodi.sourceforge.net/DTD/sodipodi-0.dtd"
   xmlns="http://www.w3.org/2000/svg"
   xmlns:svg="http://www.w3.org/2000/svg">
  <sodipodi:namedview
     id="namedview15"
     pagecolor="#ffffff"
     bordercolor="#000000"
     borderopacity="0.25"
     inkscape:showpageshadow="2"
     inkscape:pageopacity="0.0"
     inkscape:pagecheckerboard="0"
     inkscape:deskcolor="#d1d1d1"
     inkscape:zoom="3.0585938"
     inkscape:cx="113.94125"
     inkscape:cy="28.607918"
     inkscape:window-width="1920"
     inkscape:window-height="1001"
     inkscape:window-x="-9"
     inkscape:window-y="-9"
     inkscape:window-maximized="1"
     inkscape:current-layer="svg15" />
  <defs
     id="defs15">
    <linearGradient
       id="a"
       x1="34.513"
       x2="27.157"
       y1="15.535"
       y2="30.448"
       gradientTransform="translate(-129.242 -73.715) scale(6.18523)"
       gradientUnits="userSpaceOnUse">
      <stop
         stop-color="#3F873F"
         id="stop3" />
      <stop
         offset=".33"
         stop-color="#3F8B3D"
         id="stop4" />
      <stop
         offset=".637"
         stop-color="#3E9638"
         id="stop5" />
      <stop
         offset=".934"
         stop-color="#3DA92E"
         id="stop6" />
      <stop
         offset="1"
         stop-color="#3DAE2B"
         id="stop7" />
    </linearGradient>
    <linearGradient
       id="b"
       x1="30.009"
       x2="50.533"
       y1="23.359"
       y2="8.288"
       gradientTransform="translate(-129.242 -73.715) scale(6.18523)"
       gradientUnits="userSpaceOnUse">
      <stop
         offset=".138"
         stop-color="#3F873F"
         id="stop8" />
      <stop
         offset=".402"
         stop-color="#52A044"
         id="stop9" />
      <stop
         offset=".713"
         stop-color="#64B749"
         id="stop10" />
      <stop
         offset=".908"
         stop-color="#6ABF4B"
         id="stop11" />
    </linearGradient>
    <linearGradient
       id="c"
       x1="21.917"
       x2="40.555"
       y1="22.261"
       y2="22.261"
       gradientTransform="translate(-129.242 -73.715) scale(6.18523)"
       gradientUnits="userSpaceOnUse">
      <stop
         offset=".092"
         stop-color="#6ABF4B"
         id="stop12" />
      <stop
         offset=".287"
         stop-color="#64B749"
         id="stop13" />
      <stop
         offset=".598"
         stop-color="#52A044"
         id="stop14" />
      <stop
         offset=".862"
         stop-color="#3F873F"
         id="stop15" />
    </linearGradient>
  </defs>
  <path
     id="path2"
     style="stroke-width:0.554926;fill:#53c1de;fill-opacity:1"
     d="M 89.601562 8.2207031 C 83.326884 8.1761963 75.282995 12.151541 67.179688 19.203125 A 83.869299 83.869299 0 0 0 64.058594 22.068359 A 76.342837 76.342837 0 0 0 61.980469 20.148438 C 50.657204 10.094288 39.307234 5.8577653 32.492188 9.8027344 C 25.95738 13.585665 24.022669 24.818724 26.773438 38.875 A 83.743886 83.743886 0 0 0 27.699219 43.029297 C 26.093264 43.485447 24.542466 43.97109 23.058594 44.488281 C 9.7836537 49.116364 1.3046875 56.370844 1.3046875 63.894531 C 1.3046875 71.665715 10.406729 79.459797 24.234375 84.185547 A 71.274698 71.274698 0 0 0 27.625 85.246094 A 82.02528 82.02528 0 0 0 26.638672 89.722656 C 24.016091 103.53476 26.064425 114.50209 32.582031 118.26172 C 39.313839 122.14343 50.613271 118.15203 61.615234 108.53516 C 62.484803 107.77491 63.356461 106.9682 64.230469 106.12305 A 82.317726 82.317726 0 0 0 67.621094 109.2168 C 78.277894 118.38696 88.802396 122.08992 95.314453 118.32031 C 102.04016 114.42694 104.22461 102.64484 101.38672 88.310547 C 101.17029 87.215678 100.91778 86.097693 100.63477 84.958984 C 101.42832 84.724806 102.20711 84.482406 102.9668 84.230469 C 117.3416 79.468094 126.69531 71.769486 126.69531 63.894531 C 126.69531 56.343652 117.94281 49.04084 104.40039 44.378906 A 83.995822 83.995822 0 0 0 100.36523 43.107422 A 76.302328 76.302328 0 0 0 100.98828 40.353516 C 104.0437 25.521453 102.04492 13.571987 95.222656 9.6386719 C 93.587428 8.6955751 91.693122 8.2355387 89.601562 8.2207031 z M 89.861328 13.572266 C 90.904583 13.618858 91.809667 13.85301 92.548828 14.279297 C 96.747398 16.700994 98.380306 26.46741 95.742188 39.273438 A 70.766941 70.766941 0 0 1 95.177734 41.765625 C 89.975857 40.56532 84.32651 39.672113 78.412109 39.117188 C 74.966573 34.211087 71.396212 29.749848 67.8125 25.888672 A 78.755101 78.755101 0 0 1 70.697266 23.244141 C 78.218802 16.698303 85.340557 13.370366 89.861328 13.572266 z M 38.041016 13.689453 C 42.866763 13.492129 50.480271 17.101222 58.423828 24.154297 C 59.048675 24.709223 59.675955 25.28964 60.304688 25.890625 C 56.662152 29.802299 53.061923 34.255992 49.623047 39.109375 C 43.725848 39.655977 38.080293 40.533096 32.890625 41.708984 A 78.535905 78.535905 0 0 1 32.029297 37.847656 C 29.673108 25.805123 31.237696 16.718959 35.175781 14.439453 C 35.962389 13.984136 36.927382 13.734989 38.041016 13.689453 z M 64.060547 29.71875 C 66.531078 32.395158 69.005548 35.38452 71.439453 38.626953 A 157.73495 157.73495 0 0 0 56.619141 38.623047 C 59.055266 35.41058 61.551172 32.426234 64.060547 29.71875 z M 64 43.806641 C 67.882262 43.806641 71.71146 43.956112 75.439453 44.240234 A 161.31921 161.31921 0 0 1 81.480469 53.886719 A 175.58858 175.58858 0 0 1 86.886719 63.947266 A 161.37582 161.37582 0 0 1 81.498047 74.095703 A 175.62188 175.62188 0 0 1 75.482422 83.802734 C 71.762198 84.068543 67.917778 84.205078 64 84.205078 C 60.098315 84.205078 56.301782 84.082656 52.646484 83.845703 A 151.93763 151.93763 0 0 1 46.519531 74.125 A 150.5703 150.5703 0 0 1 41.169922 64.023438 A 151.97426 151.97426 0 0 1 46.503906 53.916016 L 46.503906 53.914062 A 150.52479 150.52479 0 0 1 52.582031 44.236328 C 56.311134 43.954426 60.13494 43.806641 64 43.806641 z M 45.705078 44.921875 A 157.48246 157.48246 0 0 0 41.861328 51.238281 A 158.2871 158.2871 0 0 0 38.322266 57.722656 C 36.762369 54.022965 35.427766 50.385728 34.337891 46.873047 C 37.915499 46.072289 41.730143 45.418534 45.705078 44.921875 z M 82.302734 44.931641 C 86.30375 45.436623 90.137077 46.107842 93.736328 46.929688 C 92.655887 50.392981 91.308634 54.014108 89.722656 57.726562 A 186.68821 186.68821 0 0 0 86.117188 51.203125 A 170.3523 170.3523 0 0 0 82.302734 44.931641 z M 29.138672 48.189453 C 30.708002 53.293108 32.766151 58.629291 35.25 64.025391 C 32.733965 69.501956 30.646259 74.922351 29.0625 80.085938 A 65.985143 65.985143 0 0 1 25.966797 79.117188 C 19.852623 77.027337 14.802871 74.310961 11.341797 71.347656 C 8.2319916 68.684011 6.6621094 66.04043 6.6621094 63.894531 C 6.6621094 59.329154 13.469035 53.505163 24.822266 49.546875 A 77.287876 77.287876 0 0 1 29.138672 48.189453 z M 98.929688 48.267578 C 100.21212 48.639378 101.45845 49.029939 102.6582 49.443359 C 114.2617 53.437162 121.33789 59.344137 121.33789 63.894531 C 121.33789 68.741809 113.69412 75.033928 101.2832 79.146484 C 100.59787 79.373449 99.894699 79.592151 99.177734 79.804688 C 97.590646 74.780942 95.448486 69.438661 92.828125 63.919922 C 95.329176 58.53159 97.386994 53.259137 98.929688 48.267578 z M 89.775391 70.128906 C 91.451267 73.949016 92.864267 77.643857 93.986328 81.158203 C 90.350452 81.987817 86.424925 82.65624 82.289062 83.152344 A 187.30806 187.30806 0 0 0 86.138672 76.771484 A 170.15808 170.15808 0 0 0 89.775391 70.128906 z M 38.328125 70.320312 A 157.3182 157.3182 0 0 0 41.882812 76.808594 A 158.30375 158.30375 0 0 0 45.820312 83.248047 C 41.713859 82.789679 37.84017 82.169186 34.263672 81.390625 C 35.37075 77.815792 36.734933 74.099358 38.328125 70.320312 z M 95.455078 86.318359 C 95.710344 87.350522 95.936923 88.362129 96.132812 89.351562 C 97.387501 95.689927 97.567607 101.42047 96.736328 105.90039 C 95.989397 109.92582 94.487642 112.6087 92.630859 113.68359 C 88.679231 115.971 80.228229 112.99847 71.115234 105.15625 C 70.070308 104.25727 69.016406 103.29677 67.960938 102.28125 C 71.494152 98.416749 75.026565 93.924332 78.472656 88.935547 C 84.534668 88.397824 90.261525 87.518664 95.455078 86.318359 z M 32.818359 86.558594 C 37.954199 87.694528 43.638404 88.511132 49.714844 89.003906 C 53.183687 93.88559 56.817115 98.373299 60.478516 102.30273 A 65.960172 65.960172 0 0 1 58.089844 104.50195 C 53.224807 108.75491 48.350925 111.77133 44.054688 113.28906 L 44.052734 113.28906 C 40.192114 114.65251 37.118213 114.6907 35.259766 113.61914 C 31.304253 111.3384 29.659888 102.5323 31.902344 90.720703 A 76.861138 76.861138 0 0 1 32.818359 86.558594 z M 71.568359 89.392578 C 69.126684 92.711036 66.662867 95.745331 64.208984 98.447266 C 61.670198 95.707596 59.137367 92.679002 56.664062 89.419922 C 59.064673 89.514262 61.512267 89.560547 64 89.560547 C 66.555989 89.560547 69.081735 89.503561 71.568359 89.392578 z " />
  <path
     d="m 64,52.697349 c 6.184096,0 11.196742,5.013202 11.196742,11.196743 0,6.184095 -5.012646,11.197297 -11.196742,11.197297 -6.183541,0 -11.196742,-5.013202 -11.196742,-11.197297 0,-6.183541 5.013201,-11.196743 11.196742,-11.196743"
     fill="#53c1de"
     id="path4"
     style="stroke-width:0.554926" />
</svg>
