<?xml version="1.0" encoding="UTF-8" standalone="no"?>
<svg
   xml:space="preserve"
   viewBox="0 0 128 128"
   version="1.1"
   id="svg2"
   sodipodi:docname="github-icon.svg"
   inkscape:version="1.4.2 (f4327f4, 2025-05-13)"
   xmlns:inkscape="http://www.inkscape.org/namespaces/inkscape"
   xmlns:sodipodi="http://sodipodi.sourceforge.net/DTD/sodipodi-0.dtd"
   xmlns="http://www.w3.org/2000/svg"
   xmlns:svg="http://www.w3.org/2000/svg"><defs
     id="defs2" /><sodipodi:namedview
     id="namedview2"
     pagecolor="#ffffff"
     bordercolor="#000000"
     borderopacity="0.25"
     inkscape:showpageshadow="2"
     inkscape:pageopacity="0.0"
     inkscape:pagecheckerboard="0"
     inkscape:deskcolor="#d1d1d1"
     showgrid="false"
     inkscape:zoom="6.1171875"
     inkscape:cx="64"
     inkscape:cy="64.980843"
     inkscape:window-width="1920"
     inkscape:window-height="1001"
     inkscape:window-x="-9"
     inkscape:window-y="-9"
     inkscape:window-maximized="1"
     inkscape:current-layer="svg2" /><g
     style="clip-rule:evenodd;fill-rule:evenodd;image-rendering:optimizeQuality;shape-rendering:geometricPrecision;text-rendering:geometricPrecision;fill:#ffffff"
     id="g2"
     transform="matrix(0.19987042,0,0,0.19987042,0.02111114,0.18350365)"><path
       d="M 319.988,7.973 C 143.293,7.973 0,151.242 0,327.96 c 0,141.392 91.678,261.298 218.826,303.63 16.004,2.964 21.886,-6.957 21.886,-15.414 0,-7.63 -0.319,-32.835 -0.449,-59.552 -89.032,19.359 -107.8,-37.772 -107.8,-37.772 -14.552,-36.993 -35.529,-46.831 -35.529,-46.831 -29.032,-19.879 2.209,-19.442 2.209,-19.442 32.126,2.245 49.04,32.954 49.04,32.954 28.56,48.922 74.883,34.76 93.131,26.598 2.882,-20.681 11.15,-34.807 20.315,-42.803 -71.08,-8.067 -145.797,-35.516 -145.797,-158.14 0,-34.926 12.52,-63.485 32.965,-85.88 -3.33,-8.078 -14.291,-40.606 3.083,-84.674 0,0 26.87,-8.61 88.029,32.8 25.512,-7.075 52.878,-10.642 80.056,-10.76 27.2,0.118 54.614,3.673 80.162,10.76 61.076,-41.386 87.922,-32.8 87.922,-32.8 17.398,44.08 6.485,76.631 3.154,84.675 20.516,22.394 32.93,50.953 32.93,85.879 0,122.907 -74.883,149.93 -146.117,157.856 11.481,9.921 21.733,29.398 21.733,59.233 0,42.792 -0.366,77.28 -0.366,87.804 0,8.516 5.764,18.473 21.992,15.354 127.076,-42.354 218.637,-162.274 218.637,-303.582 0,-176.695 -143.269,-319.988 -320,-319.988 l -0.023,0.107 z"
       id="path1-4"
       style="fill:#ffffff" /></g></svg>
