<?xml version="1.0" encoding="UTF-8"?>
<svg xmlns="http://www.w3.org/2000/svg" version="1.1" xmlns:xlink="http://www.w3.org/1999/xlink" viewBox="0 0 60 60">
  <defs>
    <style>
      .cls-1 {
        fill: url(#Gradiente_sem_nome_86);
      }

      .cls-1, .cls-2, .cls-3, .cls-4, .cls-5, .cls-6, .cls-7, .cls-8, .cls-9 {
        stroke-width: 0px;
      }

      .cls-10, .cls-3, .cls-6, .cls-9 {
        isolation: isolate;
      }

      .cls-2 {
        fill: url(#Gradiente_sem_nome_66);
      }

      .cls-3 {
        fill: url(#Gradiente_sem_nome_8);
        mix-blend-mode: overlay;
        opacity: .6;
      }

      .cls-4 {
        fill: #040009;
      }

      .cls-4, .cls-6, .cls-9 {
        mix-blend-mode: multiply;
      }

      .cls-5 {
        fill: url(#Gradiente_sem_nome_72);
      }

      .cls-6 {
        fill: url(#Gradiente_sem_nome_62);
      }

      .cls-7 {
        fill: #362f8d;
      }

      .cls-8 {
        fill: url(#Gradiente_sem_nome_51);
      }

      .cls-9 {
        fill: url(#Gradiente_sem_nome_3);
      }
    </style>
    <linearGradient id="Gradiente_sem_nome_86" data-name="Gradiente sem nome 86" x1="10.7" y1="30.3" x2="52.5" y2="30.3" gradientTransform="translate(0 59.9) scale(1 -1)" gradientUnits="userSpaceOnUse">
      <stop offset="0" stop-color="#2c2f60"/>
      <stop offset=".2" stop-color="#0574a9"/>
      <stop offset=".4" stop-color="#12b1e2"/>
      <stop offset=".6" stop-color="#14ebff"/>
      <stop offset=".8" stop-color="#14ebff"/>
      <stop offset="1" stop-color="#aee6f5"/>
    </linearGradient>
    <linearGradient id="Gradiente_sem_nome_62" data-name="Gradiente sem nome 62" x1="15" y1="30.4" x2="45.2" y2="30.4" gradientTransform="translate(0 59.9) scale(1 -1)" gradientUnits="userSpaceOnUse">
      <stop offset=".2" stop-color="#485868"/>
      <stop offset="1" stop-color="#fff" stop-opacity="0"/>
    </linearGradient>
    <linearGradient id="Gradiente_sem_nome_3" data-name="Gradiente sem nome 3" x1="12.3" y1="30.3" x2="49.4" y2="30.3" gradientTransform="translate(0 59.9) scale(1 -1)" gradientUnits="userSpaceOnUse">
      <stop offset="0" stop-color="#485868"/>
      <stop offset="1" stop-color="#fff" stop-opacity="0"/>
    </linearGradient>
    <linearGradient id="Gradiente_sem_nome_72" data-name="Gradiente sem nome 72" x1=".6" y1="30.3" x2="25.8" y2="30.3" gradientTransform="translate(0 59.9) scale(1 -1)" gradientUnits="userSpaceOnUse">
      <stop offset="0" stop-color="#e11dde"/>
      <stop offset=".1" stop-color="#e95c9f"/>
      <stop offset=".3" stop-color="#f29d5e"/>
      <stop offset=".5" stop-color="#f9cd2f"/>
      <stop offset=".6" stop-color="#fdea11"/>
      <stop offset=".7" stop-color="#fff607"/>
    </linearGradient>
    <linearGradient id="Gradiente_sem_nome_51" data-name="Gradiente sem nome 51" x1="-5.9" y1="30.4" x2="33.8" y2="30.4" gradientTransform="translate(0 59.9) scale(1 -1)" gradientUnits="userSpaceOnUse">
      <stop offset="0" stop-color="#e11dde"/>
      <stop offset=".2" stop-color="#e332c8"/>
      <stop offset=".4" stop-color="#eb6a92"/>
      <stop offset=".6" stop-color="#f6c23b"/>
      <stop offset=".9" stop-color="#fef807"/>
    </linearGradient>
    <linearGradient id="Gradiente_sem_nome_66" data-name="Gradiente sem nome 66" x1="3" y1="30.4" x2="18.1" y2="30.4" gradientTransform="translate(0 59.9) scale(1 -1)" gradientUnits="userSpaceOnUse">
      <stop offset="0" stop-color="#e11dde"/>
      <stop offset="0" stop-color="#e332c8"/>
      <stop offset=".2" stop-color="#eb6a92"/>
      <stop offset=".4" stop-color="#f6c23b"/>
      <stop offset=".7" stop-color="#fef807"/>
    </linearGradient>
    <linearGradient id="Gradiente_sem_nome_8" data-name="Gradiente sem nome 8" x1="29.6" y1="30.3" x2="11.3" y2="30.3" gradientTransform="translate(0 59.9) scale(1 -1)" gradientUnits="userSpaceOnUse">
      <stop offset="0" stop-color="#fff"/>
      <stop offset="0" stop-color="#000"/>
      <stop offset=".2" stop-color="#000" stop-opacity=".7"/>
      <stop offset=".4" stop-color="#000" stop-opacity=".4"/>
      <stop offset=".6" stop-color="#000" stop-opacity=".2"/>
      <stop offset=".8" stop-color="#000" stop-opacity=".1"/>
      <stop offset=".9" stop-color="#000" stop-opacity="0"/>
      <stop offset="1" stop-color="#fff" stop-opacity="0"/>
    </linearGradient>
  </defs>
  <g class="cls-10">
    <g id="Camada_1" data-name="Camada 1">
      <rect class="cls-7" y="0" width="60" height="60"/>
      <path class="cls-4" d="M30,11.2H9.4v40.5h20.6c11.4,0,20.7-9.1,20.7-20.2s-9.3-20.2-20.7-20.2ZM30,41.4c-5.7,0-10.2-4.5-10.2-10s4.6-10,10.2-10,10.2,4.5,10.2,10-4.6,10-10.2,10Z"/>
      <path class="cls-1" d="M29.5,9.3H9.4v40.5h20.2c11.2,0,20.3-9.1,20.3-20.3s-9.1-20.2-20.3-20.2ZM29.5,39.5c-5.5,0-10-4.5-10-10s4.5-10,10-10,10,4.5,10,10-4.5,10-10,10Z"/>
      <path class="cls-6" d="M29.5,11.8H11.9v35.4h17.6c9.8,0,17.7-7.9,17.7-17.7s-7.9-17.7-17.7-17.7h0ZM29.5,39.5c-5.5,0-10-4.5-10-10s4.5-10,10-10,10,4.5,10,10-4.5,10-10,10Z"/>
      <path class="cls-9" d="M29.2,39.5c-6-.4-10.4-4.2-10.4-9.7s3.4-9.7,10.4-10.3h.6c-4-6.1-11.7-10.3-20.5-10.3h0v40.5h0c8.8,0,16.4-4.1,20.5-10.3-.2,0-.4,0-.6,0Z"/>
      <path class="cls-5" d="M9.3,9.3h0v40.5h0c11.2,0,20.2-9.1,20.2-20.3S20.5,9.3,9.3,9.3Z"/>
      <path class="cls-8" d="M9.3,11.8h0v35.4h0c9.8,0,17.7-7.9,17.7-17.7S19.1,11.8,9.3,11.8Z"/>
      <path class="cls-2" d="M9.7,19.6h-.4v19.9h.4c5.5,0,10-4.5,10-10s-4.5-10-10-10h0Z"/>
      <path class="cls-3" d="M9.3,9.3h0v40.5h0c11.2,0,20.3-9.1,20.3-20.3S20.5,9.3,9.3,9.3Z"/>
    </g>
  </g>
</svg>