<?xml version="1.0" encoding="UTF-8"?>
<svg id="Camada_1" xmlns="http://www.w3.org/2000/svg" version="1.1" viewBox="0 0 510 175">
  <!-- Generator: Adobe Illustrator 29.0.0, SVG Export Plug-In . SVG Version: 2.1.0 Build 186)  -->
  <defs>
    <style>
      .st0 {
        fill: #fff;
      }
    </style>
  </defs>
  <path class="st0" d="M193.3,53.2c-.7,0-1.2.5-1.2,1.2v41c0,9.5-3.4,13.6-11.4,13.6s-10.8-2.2-15.8-6.2c-.8-.6-1.9,0-1.9.9v12.4c0,.7.3,1.4,1,1.8,5,2.9,9.3,4.7,16.7,5,16.6.5,26.6-9.1,26.6-25.9v-42.6c0-.7-.5-1.2-1.2-1.2h-12.8ZM312.5,80c-10.2-1.1-13.2-2.9-13.2-6.8s4.7-7.5,12.3-7.5,16.6,4.1,19.9,6.1c.8.5,1.8,0,1.8-1v-12.4c0-.8-.4-1.5-1.1-1.9-4.5-2.6-12.5-4.4-20.4-4.4-17.3,0-27.6,8.2-27.6,21.9s6.8,18.4,24.4,20.4c10.4,1.1,13.6,3,13.6,7.1s-4.4,7.5-12.8,7.5-19.5-4.9-23.2-7.1c-.8-.5-1.7,0-1.7,1v12.5c0,.7.3,1.4,1,1.8,5.5,3.5,13.9,5.3,24.5,5.3,17.5,0,27.4-7.7,27.4-21.4s-6.8-19.3-24.8-21.2ZM266.4,87c-.4-.1-.5-.7,0-.9,2.5-1.3,7.9-5.2,7.9-14s-8.3-18.9-24.4-18.9h-28.3c-.7,0-1.2.5-1.2,1.2v66c0,.7.5,1.2,1.2,1.2h30.8c16,0,24.3-6.5,24.3-19.1s-7.2-14.5-10.3-15.5ZM235.6,67.5c0-.4.3-.7.7-.7h13.3c6.2,0,9.3,2.3,9.3,6.9s-3.2,7.1-10.3,7.1h-12.3c-.4,0-.7-.3-.7-.7v-12.6ZM251.9,108h-15.6c-.4,0-.7-.3-.7-.7v-13c0-.4.3-.7.7-.7h14.7c7,0,10.3,2.6,10.3,7.3s-3.1,7.1-9.4,7.1Z"/>
  <path class="st0" d="M396.9,47.4c-.2-1.6-.5-3.2-.8-4.8h4c.3,1.5.5,3,.8,4.5,2.5,16.5,1.6,33-2.6,49.3-3.2,12.6-8.3,24.4-15.1,35.2-1.7,2.7-3.5,5.3-5.4,7.9h-4.4c5.6-7.4,10.3-15.4,14.1-23.8,2.8-6.3,5.1-12.9,6.9-19.7,4.1-16,5-32.4,2.5-48.6Z"/>
  <path class="st0" d="M382.3,57.9c-1.5-9.9-4.2-19.6-8.1-28.8h9.7c3.4,8.8,5.9,18,7.3,27.4,2.5,16.9,1.6,34-2.7,50.7-.7,2.9-1.6,5.7-2.5,8.5-1.8,5.5-4,10.8-6.5,15.9-1.3,2.7-2.7,5.3-4.2,7.9h-10.6c6.8-10.6,11.8-22.2,15-34.5,2.7-10.3,3.9-20.8,3.8-31.2,0-5.3-.5-10.6-1.3-15.9Z"/>
  <path class="st0" d="M330.4,145.9c5.7-5,10.9-10.6,15.5-16.7,9.5-12.5,16.4-26.6,20.3-42,3.9-15.4,4.8-31,2.4-46.6-.6-3.9-1.4-7.7-2.3-11.5h12.4c.7,3.2,1.4,6.5,1.8,9.7,1.7,11.6,1.9,23.3.4,34.9-.7,5.5-1.7,11-3.1,16.4-4.3,16.9-11.9,32.5-22.4,46.3-2.5,3.3-5.1,6.4-7.9,9.4h-17.2Z"/>
  <path class="st0" d="M113.1,127.6c.2,1.6.5,3.2.8,4.8h-4c-.3-1.5-.5-3-.8-4.5-2.5-16.5-1.6-33,2.6-49.3,3.2-12.6,8.3-24.4,15.1-35.2,1.7-2.7,3.5-5.3,5.4-7.9h4.4c-5.6,7.4-10.3,15.4-14.1,23.8-2.8,6.3-5.1,12.9-6.9,19.7-4.1,16-5,32.4-2.5,48.6Z"/>
  <path class="st0" d="M127.7,117.1c1.5,9.9,4.2,19.6,8.1,28.8h-9.7c-3.4-8.8-5.9-18-7.3-27.4-2.5-16.9-1.6-34,2.7-50.7.7-2.9,1.6-5.7,2.5-8.5,1.8-5.5,4-10.8,6.5-15.9,1.3-2.7,2.7-5.3,4.2-7.9h10.6c-6.8,10.6-11.8,22.2-15,34.5-2.7,10.3-3.9,20.8-3.8,31.2,0,5.3.5,10.6,1.3,15.9Z"/>
  <path class="st0" d="M179.6,29.1c-5.7,5-10.9,10.6-15.5,16.7-9.5,12.5-16.4,26.6-20.3,42-3.9,15.4-4.8,31-2.4,46.6.6,3.9,1.4,7.7,2.3,11.5h-12.4c-.7-3.2-1.4-6.5-1.8-9.7-1.7-11.6-1.9-23.3-.4-34.9.7-5.5,1.7-11,3.1-16.4,4.3-16.9,11.9-32.5,22.4-46.3,2.5-3.3,5.1-6.4,7.9-9.4h17.2Z"/>
</svg>