<?xml version="1.0" encoding="UTF-8"?>
<svg id="Camada_1" xmlns="http://www.w3.org/2000/svg" version="1.1" viewBox="0 0 510 175">
  <!-- Generator: Adobe Illustrator 29.0.0, SVG Export Plug-In . SVG Version: 2.1.0 Build 186)  -->
  <defs>
    <style>
      .st0 {
        fill: #fff;
      }
    </style>
  </defs>
  <path class="st0" d="M126.3,36.4c-40.8,0-73.9,21.7-73.9,48.3s0,2.6,0,2.8c0,28.2,28.9,51.1,73.9,51.1s73.9-22.9,73.9-51.1v-2.8c0-26.6-33.1-48.3-73.9-48.3h0ZM196.9,79.3c-16.1,3.6-28,8.8-31,10.1-7-6.1-23.2-20.2-27.6-23.5-2.5-1.9-4.2-2.9-5.7-3.3-.7-.2-1.6-.4-2.8-.4s-2.3.2-3.6.6c-2.8.9-5.7,3.1-8.4,5.3h-.1c-2.5,2.1-5.2,4.2-7.2,4.7-.9.2-1.8.3-2.7.3-2.2,0-4.2-.6-5-1.6-.1-.2,0-.4.2-.8h0c0,0,6.2-6.7,6.2-6.7,4.8-4.8,9.4-9.4,19.9-9.6.2,0,.3,0,.5,0,6.5,0,13.1,2.9,13.8,3.3,6.1,3,12.5,4.5,18.8,4.5,6.6,0,13.4-1.6,20.6-4.9,7.5,6.3,12.5,13.9,14,22.2h0ZM126.4,39.2c21.7,0,41,6.2,54.1,16-6.3,2.7-12.3,4.1-18.1,4.1-5.9,0-11.8-1.4-17.6-4.2-.3-.1-7.5-3.5-15-3.6-.2,0-.4,0-.6,0-8.8.2-13.8,3.3-17.1,6.1-3.2,0-6.1.9-8.5,1.6-2.2.6-4.1,1.2-6,1.2s-2.2,0-2.3,0c-2.2,0-13-2.7-21.6-6,13-9.2,31.8-15.1,52.8-15.1h0ZM71,56.2c9,3.7,19.9,6.5,23.4,6.8,1,0,2,.2,3,.2,2.3,0,4.6-.6,6.8-1.3,1.3-.4,2.8-.8,4.3-1.1-.4.4-.8.8-1.2,1.2l-6.3,6.8c-.5.5-1.6,1.8-.9,3.5.3.7.8,1.3,1.6,1.8,1.5,1,4.2,1.7,6.6,1.7s1.8,0,2.6-.3c2.6-.6,5.4-2.8,8.3-5.1,2.3-1.8,5.6-4.2,8.2-4.9.7-.2,1.6-.3,2.3-.3s.4,0,.6,0c1.7.2,3.3.8,6.2,2.9,5.1,3.9,27.9,23.8,28.1,24,0,0,1.5,1.3,1.4,3.3,0,1.2-.7,2.2-1.8,2.9-1,.6-2,.9-3,.9-1.5,0-2.6-.7-2.6-.8,0,0-7.9-7.2-10.7-9.6-.5-.4-.9-.7-1.3-.7s-.5.1-.6.3c-.5.6,0,1.3.6,1.8l9.1,9.2s1.1,1.1,1.3,2.5c0,1.5-.7,2.8-2.2,3.8-1.1.7-2.2,1.1-3.2,1.1s-2.4-.6-2.6-.8l-1.3-1.3c-2.4-2.4-4.9-4.8-6.7-6.3-.4-.4-.9-.7-1.4-.7s-.4,0-.6.2c-.2.2-.3.6.2,1.3.2.3.5.5.5.5l6.6,7.5c0,0,1.4,1.6.1,3.2l-.2.3c-.2.2-.4.4-.6.6-1.1.9-2.6,1-3.2,1s-.6,0-.9,0c-.7-.1-1.1-.3-1.3-.6h0c-.4-.5-3.7-3.9-6.5-6.2-.4-.3-.8-.7-1.3-.7s-.4,0-.6.3c-.5.6.3,1.5.6,1.8l5.7,6.3c0,0,0,.2-.2.4-.2.3-.9,1-2.9,1.2-.2,0-.5,0-.8,0-2.1,0-4.4-1-5.6-1.6.5-1.1.8-2.4.8-3.6,0-4.7-3.8-8.5-8.5-8.5,0,0-.2,0-.3,0,.1-2.1-.1-6.2-4.3-7.9-1.2-.5-2.4-.8-3.5-.8s-1.8.2-2.6.5c-.9-1.7-2.3-2.9-4.1-3.5-1-.4-2-.5-3-.5-1.7,0-3.3.5-4.7,1.5-1.4-1.7-3.4-2.7-5.6-2.7s-3.7.8-5,2.1c-1.8-1.3-8.8-5.8-27.5-10-.9-.2-2.9-.8-4.2-1.2,1.8-8.4,7.1-16.1,15-22.4h0ZM105.7,105l-.2-.2h-.2c-.2,0-.3,0-.6.2-1,.7-1.9,1-2.8,1s-1-.1-1.6-.3c-4.3-1.7-4-5.8-3.8-7,0-.3,0-.4-.2-.6l-.3-.3-.3.3c-.8.8-2,1.3-3.1,1.3-2.5,0-4.5-2-4.5-4.5,0-2.5,2-4.5,4.5-4.5,2.2,0,4.2,1.7,4.4,3.9l.2,1.2.7-1c0-.1,1.9-2.9,5.2-2.9.6,0,1.3.1,2,.3,2.7.8,3.1,3.2,3.2,4.2,0,.6.5.6.5.6.2,0,.4-.1.5-.3.5-.5,1.6-1.4,3.3-1.4s1.6.2,2.5.6c4.2,1.8,2.3,7.2,2.3,7.3-.4.9-.4,1.3,0,1.5h.2c0,0,.1,0,.1,0,.2,0,.4,0,.8-.2.6-.2,1.4-.5,2.3-.5h0c3.2,0,5.8,2.6,5.8,5.8s-2.6,5.8-5.8,5.8-5.7-2.4-5.8-5.5c0-.3,0-1-.6-1s-.5.1-.7.4c-.7.6-1.6,1.3-2.8,1.3s-1.2-.1-1.9-.4c-3.3-1.3-3.3-3.6-3.2-4.5,0-.2,0-.5-.1-.7h0ZM126.4,130.1c-39.2,0-71-20.3-71-45.4s0-2,.2-3c.3,0,3.4.8,4.1,1,19.1,4.2,25.5,8.7,26.5,9.5-.4.9-.6,1.8-.6,2.8,0,4,3.2,7.2,7.2,7.2s.9,0,1.3-.1c.6,2.9,2.5,5.1,5.4,6.3.8.3,1.7.5,2.6.5s1.1,0,1.6-.2c.5,1.4,1.7,3.1,4.5,4.2.9.4,1.9.6,2.8.6s1.5-.1,2.2-.4c1.3,3.2,4.4,5.2,7.8,5.2s4.5-.9,6.1-2.6c1.4.8,4.2,2.1,7.2,2.1.4,0,.7,0,1.1,0,2.9-.4,4.2-1.5,4.9-2.4.1-.2.2-.3.3-.5.7.2,1.4.4,2.3.4,1.6,0,3.1-.5,4.6-1.7,1.5-1.1,2.6-2.6,2.7-4,0,0,0,0,0,0,.5.1,1,.2,1.5.2,1.6,0,3.2-.5,4.8-1.5,2.9-1.9,3.5-4.5,3.4-6.1.5.1,1,.2,1.6.2,1.5,0,3-.5,4.5-1.4,1.8-1.2,2.9-3,3.1-5,.1-1.4-.2-2.8-1-4.1,4.9-2.1,16.2-6.2,29.5-9.2,0,.8,0,1.5,0,2.3,0,25.1-31.8,45.4-71,45.4h0Z"/>
  <g>
    <path class="st0" d="M453.5,51.2c-2.7-3.4-6.8-5-12.2-5s-9.5,1.7-12.2,5c-2.7,3.4-4,7.3-4,11.9s1.3,8.6,4,12c2.7,3.3,6.8,5,12.2,5s9.5-1.7,12.2-5c2.7-3.3,4-7.3,4-12s-1.3-8.6-4-11.9ZM446.9,70.5c-1.3,1.7-3.2,2.6-5.6,2.6s-4.3-.9-5.6-2.6c-1.3-1.7-2-4.2-2-7.4s.7-5.6,2-7.4,3.2-2.6,5.6-2.6,4.3.9,5.6,2.6c1.3,1.7,2,4.2,2,7.4s-.7,5.6-2,7.4h0Z"/>
    <path class="st0" d="M385,48.4c-2.7-1.4-5.8-2.1-9.3-2.1-5.4,0-9.2,1.4-11.4,4.2-1.4,1.8-2.2,4.1-2.4,6.9h8.1c.2-1.2.6-2.2,1.2-2.9.8-1,2.2-1.5,4.2-1.5s3.1.2,4.1.7c.9.5,1.4,1.4,1.4,2.7s-.6,1.9-1.8,2.4c-.7.3-1.8.5-3.3.7l-2.9.3c-3.2.4-5.7,1.1-7.4,2.1-3,1.8-4.6,4.6-4.6,8.5s.9,5.4,2.8,7c1.9,1.7,4.3,2.3,7.2,2.5,18.2.8,18-9.6,18.2-11.8v-12c0-3.8-1.4-6.5-4.1-7.8h0ZM380.7,66.6c0,2.8-.9,4.7-2.4,5.8-1.5,1.1-3.2,1.6-5,1.6s-2.1-.3-2.9-1c-.8-.6-1.2-1.7-1.2-3.1s.7-2.8,2-3.5c.8-.4,2.1-.8,3.8-1.1l1.9-.4c.9-.2,1.7-.4,2.2-.6.6-.2,1.1-.5,1.6-.8v3.1h0Z"/>
    <path class="st0" d="M343.5,53.5c2.1,0,3.6.6,4.6,1.9.7.9,1.1,2,1.3,3.2h9c-.5-4.5-2.1-7.7-4.8-9.5-2.7-1.8-6.1-2.7-10.3-2.7s-8.8,1.5-11.6,4.5c-2.8,3-4.2,7.3-4.2,12.7s1.3,8.8,3.8,11.8c2.5,3,6.5,4.5,11.9,4.5s9.5-1.8,12.2-5.5c1.7-2.3,2.7-4.6,2.9-7.2h-8.9c-.2,1.7-.7,3-1.6,4.1-.9,1-2.3,1.6-4.4,1.6s-4.9-1.3-5.9-4c-.6-1.4-.9-3.3-.9-5.6s.3-4.4.9-5.9c1.1-2.8,3.1-4.2,6.1-4.2h0Z"/>
    <path class="st0" d="M324.9,46.5c-18.4,0-17.3,16.3-17.3,16.3v16.6h8.4v-15.6c0-2.6.3-4.4,1-5.7,1.1-2.2,3.4-3.3,6.7-3.3s.6,0,1,0c.4,0,.9,0,1.4.1v-8.5c-.4,0-.6,0-.7,0-.1,0-.2,0-.4,0h0Z"/>
    <path class="st0" d="M300.9,52.6c-1.4-2.1-3.3-3.7-5.5-4.7-2.2-1-4.7-1.5-7.5-1.5-4.7,0-8.4,1.5-11.4,4.4-2.9,2.9-4.4,7.2-4.4,12.7s1.6,10.1,4.9,12.7c3.2,2.6,7,3.9,11.2,3.9s9.1-1.5,12-4.6c1.5-1.6,2.5-3.2,2.9-4.8h-8.9c-.3.5-.7.9-1.1,1.3-1.2,1-2.8,1.3-4.7,1.3s-3.2-.3-4.5-1.1c-2.1-1.3-3.3-3.5-3.4-6.6h23.2c0-2.7,0-4.9-.3-6.3-.4-2.5-1.2-4.7-2.5-6.6h0ZM280.7,60c.3-2.1,1-3.7,2.2-4.9,1.2-1.2,2.8-1.8,5-1.8s3.6.6,4.9,1.7c1.3,1.1,2.1,2.8,2.2,5h-14.3Z"/>
    <path class="st0" d="M255.5,46.3c-3.9,0-7.2,1.7-9.5,4.4-2.1-2.7-5.4-4.4-9.5-4.4-8.2,0-13.4,6-13.4,14v19.1h7.7v-19.2c0-3.5,2.4-5.9,5.8-5.9,5,0,5.6,4.2,5.6,5.9v19.2h7.7v-19.2c0-3.5,2.4-5.9,5.8-5.9,5,0,5.6,4.2,5.6,5.9v19.2h7.6v-19.1c0-8.2-4.9-14-13.3-14h0Z"/>
    <path class="st0" d="M414.1,42.3v9c-.9-1.5-2.2-2.7-3.7-3.5-1.5-.8-3.2-1.3-5.1-1.3-4.2,0-7.5,1.6-10,4.7-2.5,3.1-3.8,7.6-3.8,13s1.3,8.6,3.8,11.6c2.5,3,7.5,4.3,11.9,4.3,15.4,0,15.2-13.2,15.2-13.2v-30.4s-8.4-.9-8.4,5.9h0ZM412.5,70.6c-1.2,1.7-3,2.6-5.4,2.6s-4.1-.9-5.3-2.6c-1.2-1.8-1.7-4.3-1.7-7.3s.6-5,1.7-6.8c1.1-1.8,2.9-2.8,5.4-2.8s3,.5,4.2,1.5c2,1.7,2.9,4.7,2.9,8.6s-.6,5-1.8,6.8h0Z"/>
  </g>
  <path class="st0" d="M240.8,92.2c-6.9-.3-10.4,1.3-12.6,3.1-3.1,2.4-5,5.9-5,11.6v29.1h4.1c1.1,0,2.2-.4,3-1.1.9-.8,1.3-1.8,1.3-3v-10.9c1,1.7,2.3,3,3.9,3.8,1.6.7,3.4,1.1,5.4,1.1,3.9,0,7-1.5,9.5-4.6,2.5-3.2,3.7-7.3,3.7-12.4s-1.2-8.7-4-12.1c-2.3-2.7-5.7-4.3-9.2-4.5h0ZM243.6,116c-1.2,1.7-2.9,2.6-5,2.6s-4.1-.8-5.3-2.6c-1.2-1.5-1.8-3.8-1.8-6.9s.6-5.7,1.7-7.3c1.2-1.7,3-2.6,5.2-2.6s4.1.9,5.3,2.6c1.2,1.7,1.8,4.1,1.8,7.3s-.6,5.2-1.8,6.9Z"/>
  <path class="st0" d="M312.7,95.2c-2.8-2.2-5.8-3.3-10.7-3.1-5.1.1-8.8,1.6-11.1,4.7-2.3,3.1-3.4,7.2-3.4,12.2s.9,7.7,2.6,10.4c1.7,2.6,3.8,4.4,6.2,5.4,2.4,1,4.8,1.2,7.3.6,2.5-.6,4.4-2,5.9-4.2v2.1c-.2,2.6-.8,4.5-1.9,5.8-1.1,1.3-2.3,2.1-3.6,2.4-1.3.3-2.7.1-4-.5-1.3-.6-2.3-1.5-3-2.6h-8.8c2.3,6.9,6.4,9.9,13.8,10.4,11.9.9,15.7-9.2,15.7-14.7v-17.1c0-5.7-1.8-9.3-5-11.6h0ZM309.2,112c-.3,1.9-.8,3.3-1.6,4.2-1.5,2.1-3.9,2.8-7.1,2.2-3.2-.6-4.8-3.7-4.8-9.3s.5-4.9,1.5-6.9c1-2,2.8-3,5.6-3s3.5.7,4.6,2.2c1,1.5,1.7,3.1,2,5,.3,1.9.3,3.7,0,5.6h0Z"/>
  <path class="st0" d="M280.3,94.3c-2.7-1.4-5.8-2.1-9.3-2.1-5.4,0-9.2,1.4-11.4,4.2-1.4,1.8-2.2,4.1-2.4,6.9h8.1c.2-1.2.6-2.2,1.2-2.9.8-1,2.2-1.5,4.2-1.5s3.1.2,4.1.7c.9.5,1.4,1.4,1.4,2.7s-.6,1.9-1.8,2.4c-.7.3-1.8.5-3.3.7l-2.9.3c-3.2.4-5.7,1.1-7.4,2.1-3.1,1.8-4.6,4.6-4.6,8.5s.9,5.4,2.8,7c1.9,1.7,4.3,2.3,7.2,2.5,18.2.8,18-9.6,18.2-11.8v-12c0-3.8-1.4-6.5-4.1-7.8h0ZM276,112.5c0,2.8-.9,4.7-2.4,5.8-1.5,1.1-3.2,1.6-5,1.6s-2.1-.3-2.9-1c-.8-.6-1.2-1.7-1.2-3.1s.7-2.8,2-3.5c.8-.4,2.1-.8,3.8-1.1l1.9-.3c.9-.2,1.7-.4,2.2-.6.6-.2,1.1-.5,1.6-.8v3.1h0Z"/>
  <path class="st0" d="M349.3,97c-2.7-3.4-6.8-5-12.2-5s-9.5,1.7-12.2,5c-2.7,3.4-4,7.3-4,11.9s1.3,8.6,4,12c2.7,3.3,6.8,5,12.2,5s9.5-1.7,12.2-5c2.7-3.3,4-7.3,4-12s-1.3-8.6-4-11.9ZM342.6,116.2c-1.3,1.7-3.2,2.6-5.6,2.6s-4.3-.9-5.6-2.6c-1.3-1.7-2-4.2-2-7.4s.7-5.6,2-7.4c1.3-1.7,3.2-2.6,5.6-2.6s4.3.9,5.6,2.6c1.3,1.7,1.9,4.2,1.9,7.4s-.6,5.6-1.9,7.4Z"/>
</svg>