<?xml version="1.0" encoding="UTF-8"?>
<svg id="Camada_1" xmlns="http://www.w3.org/2000/svg" version="1.1" viewBox="0 0 510 175">
  <!-- Generator: Adobe Illustrator 29.0.0, SVG Export Plug-In . SVG Version: 2.1.0 Build 186)  -->
  <defs>
    <style>
      .st0 {
        fill: #fff;
      }
    </style>
  </defs>
  <path class="st0" d="M81,136.5c-.1,0-.2,0-.3,0-.3-.1-.4-.4-.5-.6-.8-11.6,1.4-24.3,6-34h0c1.9-4.1,4.3-6.2,6.3-5.6,1.2.4,2.1,1.7,2.4,3.8.7,5.3,1.8,10.8,3.3,16.8,0,.2,0,.4,0,.5,0,0,0,0,0,.1-4.3,6.2-9.7,13.2-16.6,18.9-.1.1-.3.2-.5.2ZM87.6,102.5c-4.3,9.1-6.4,20.8-5.9,31.8,6.1-5.3,11-11.7,15-17.4-1.5-5.9-2.5-11.3-3.3-16.6-.2-1.4-.7-2.4-1.3-2.6-.9-.3-2.7,1.1-4.5,4.8h0ZM122.1,131.2c-.1,0-.3,0-.4-.1-7.9-5.2-15-13.4-18.8-21.9h0c-1.7-3.8-1.8-6.8-.2-8.1,1-.8,2.6-.7,4.2.3,5,3,9.3,5.1,13.3,6.7.2.1.4.3.5.6,1.9,7.8,2.6,15.1,2.2,21.7,0,.3-.2.5-.4.6-.1,0-.2,0-.3,0ZM104.3,108.5c3.5,7.8,10.1,15.5,17.2,20.5.2-6-.5-12.6-2.2-19.6-4-1.6-8.2-3.8-13.1-6.7-1.1-.6-2-.8-2.5-.4-.8.6-.9,2.8.7,6.2h0ZM68.7,103.4c-6.9,0-13.3-.7-19.1-2.2-.3,0-.5-.3-.5-.5,0-.3,0-.6.2-.7,9.6-8.5,21.8-15,32.5-17.3,0,0,0,0,0,0,6.3-1.3,7.8.8,8.2,1.8.5,1.3,0,2.8-1.5,4.4-3.8,4.1-7.5,8.7-11.4,14-.1.2-.4.3-.6.3-2.7.2-5.2.3-7.8.3ZM51.3,100.1c7.4,1.7,15.7,2.2,24.7,1.5,3.9-5.3,7.6-9.8,11.3-13.9,1-1.1,1.4-2.1,1.2-2.8-.3-.9-2.2-1.7-6.4-.8,0,0,0,0,0,0-10.1,2.1-21.5,8.1-30.8,16ZM126.8,101.3c-3,0-5.9-.3-8.7-.9-4.4-1-5.8-3-5.7-4.6,0-1.3,1.1-2.4,2.8-3.1,5.2-2.3,9.3-4.4,12.9-6.7.2-.1.5-.2.7,0,0,0,0,0,0,0,6.2,3.1,11.3,6.8,15.2,11,.2.2.2.4.2.7,0,.2-.2.4-.5.5-5.3,2.1-11.3,3.1-17,3.1ZM128.5,87.4c-3.6,2.2-7.6,4.3-12.7,6.6-1.1.5-1.9,1.2-1.9,1.9,0,1,1.3,2.3,4.5,3h0c7.3,1.6,16.1,1,23.7-1.8-3.6-3.6-8.2-6.9-13.6-9.7ZM116.5,85.4c-.8,0-1.4-.3-1.8-.7-.8-.9-1-2.4-.5-4.3,1.4-4.8,2.5-9.9,3.6-15.6,0-.3.2-.5.5-.6,5.5-2.6,11.3-5.1,17.8-5.8.3,0,.5,0,.7.3.2.2.2.5.1.7-3.2,9.1-8.9,17.9-15.3,23.4,0,0,0,0,0,0-2.1,1.8-3.8,2.5-5,2.5ZM119.2,65.4c-1,5.6-2.2,10.7-3.6,15.4-.4,1.5-.2,2.5,0,2.8.6.6,2.5.2,4.9-1.9,0,0,0,0,0,0,5.9-5.2,11.2-13.2,14.4-21.6-5.7.8-10.9,3.1-15.8,5.4ZM94,76.5c-.3,0-.6,0-1,0-5.3-.6-11.1-1-17.6-1-.2,0-.5-.1-.6-.3-6.4-7.6-11.1-15.2-14.1-22.5-.1-.3,0-.6.1-.8.2-.2.5-.3.7-.2,12.3,2.9,23.9,8.7,31.9,15.9,0,0,0,0,0,0,3.3,3,4.6,5.7,3.6,7.5-.3.6-1.2,1.5-3.2,1.5ZM75.8,74c6.4,0,12.1.4,17.4,1,1.4.2,2.4,0,2.7-.7.5-.9-.3-2.9-3.2-5.6,0,0,0,0,0,0-7.4-6.7-18.5-12.3-29.9-15.2,2.9,6.7,7.3,13.6,13.1,20.5ZM108,75.5c-1.1,0-2.3-.9-3.3-2.5-2.8-4.5-6-9.2-9.8-14.2,0-.1-.2-.3-.2-.5s0-.1,0-.2c1.6-8.6,4-15.6,7.3-21.4.1-.2.4-.4.7-.4.3,0,.5.2.6.4,5.1,10.2,7.9,21.7,7.9,31.6h0c0,4.3-1.2,6.9-3.1,7.2,0,0-.2,0-.3,0ZM96.3,58.2c3.7,5,6.9,9.6,9.6,14.1.8,1.4,1.6,1.8,2.1,1.8.8,0,1.8-1.9,1.8-5.7,0-9.2-2.5-19.9-7.1-29.6-2.9,5.3-5,11.7-6.4,19.4ZM110.6,68.4h0,0Z"/>
  <g>
    <path class="st0" d="M102.8,37.1c-3.7,6.5-5.9,13.9-7.2,21.2,0,0,0,0,0,0-.9-1.2-2.2-2.7-3.2-4-4.1-5.1-8.5-9.8-13.1-14.4,7.5-3,15.6-4,23.6-2.8M49.2,76.7c6.9-.8,13.9-1.6,20.8-1.9,1.8,0,3.8-.2,5.4-.2,0,0,0,0,0,0-5.6-6.7-10.7-14.2-14-22.3-6.2,6.8-10.4,15.3-12.3,24.4M62.9,124.2c3.3-6,6.7-11.8,10.5-17.4,1-1.5,2.1-3.2,3.1-4.5h0c-8.8.7-18.1.3-26.7-1.9,2.2,8.9,6.7,17.2,13.2,23.7M104.6,137.6c-2.1-5.3-4.1-10.6-5.7-16-.4-1.5-1-3.2-1.3-4.6,0,0,0,0,0,0-4.8,6.8-10,13.4-16.5,18.8,7.8,2.3,15.4,3.4,23.5,1.9M137.1,114.5c-4.5-1.1-9-2.4-13.3-4.1-1.2-.5-2.7-1-3.8-1.5,0,0,0,0,0,0,1.7,7,2.6,14.3,2.2,21.5,6.1-4.1,11.2-9.6,14.9-15.9M143.1,76c-3.6,3-7.4,5.9-11.3,8.4-1.1.7-2.4,1.6-3.4,2.2,0,0,0,0,0,0,5.5,2.8,10.8,6.3,15,10.8,1-7.4.9-14-.3-21.4M120.7,43.7c-.3,5.6-.7,11.2-1.5,16.6-.2,1.5-.4,3.2-.7,4.6,0,0,0,0,0,0,5.7-2.6,11.3-5.1,17.6-5.7-3.9-6.2-9.2-11.5-15.5-15.4"/>
    <path class="st0" d="M96.9,139.1c-4.9,0-10.1-.9-16.1-2.6-.3,0-.5-.3-.5-.6,0-.3,0-.6.3-.7,6.8-5.6,12-12.5,16.3-18.6,0,0,0,0,0,0,.2-.2.4-.4.7-.3.3,0,.6.3.6.6.3,1.3.8,2.8,1.2,4.2v.4c1.8,5.6,3.9,11.2,5.8,15.9,0,.2,0,.4,0,.6s-.3.3-.5.4c-2.6.5-5.1.7-7.8.7ZM82.6,135.4c7.9,2.2,14.5,2.7,20.9,1.6-1.8-4.6-3.8-9.9-5.4-15.2v-.4c-.4-.9-.7-1.8-.9-2.7-3.9,5.5-8.7,11.6-14.6,16.7ZM122.2,131.2c-.1,0-.3,0-.4,0-.2-.1-.4-.4-.4-.7.4-6.4-.4-13.6-2.2-21.3h0c0,0,0-.1,0-.2,0-.3.1-.5.3-.6.2-.1.5-.2.7,0,.7.3,1.5.6,2.3.9.5.2,1,.4,1.4.6,3.7,1.5,7.9,2.8,13.2,4.1.3,0,.6.4.6.7,0,.1,0,.3-.1.4-3.8,6.4-9,12-15.1,16.2-.1,0-.3.1-.4.1ZM121,110.1c1.5,6.7,2.2,13,2,18.8,5.1-3.7,9.6-8.5,12.9-14-4.9-1.3-8.9-2.5-12.4-3.9-.5-.2-.9-.4-1.4-.6-.3-.1-.7-.3-1-.4ZM62.9,125c-.2,0-.4,0-.5-.2-6.5-6.6-11.1-14.9-13.4-24.1,0-.3,0-.5.2-.7.2-.2.5-.3.7-.2,7.8,1.9,16.7,2.6,26.5,1.8.3,0,.6.1.7.4.1.3.1.6,0,.8-.8,1-1.6,2.3-2.5,3.6l-.6.9c-3.3,4.9-6.6,10.4-10.4,17.3-.1.2-.3.3-.6.4,0,0,0,0-.1,0ZM50.7,101.5c2.2,8.1,6.3,15.5,12,21.5,3.6-6.6,6.8-11.9,10-16.6l.6-.9c.5-.8,1.1-1.6,1.6-2.3-8.8.5-16.9,0-24.2-1.7ZM143.4,98.2c-.2,0-.4,0-.5-.2-3.8-4-8.8-7.6-14.8-10.7,0,0,0,0,0,0-.2,0-.3-.3-.4-.5,0-.3,0-.7.3-.8.7-.4,1.4-.9,2.1-1.4.4-.3.9-.6,1.3-.8,3.4-2.2,6.8-4.7,11.2-8.3.2-.2.5-.2.7-.1.3,0,.4.3.5.6,1.3,7.4,1.4,14.1.3,21.7,0,.3-.2.5-.5.6,0,0-.2,0-.2,0ZM129.9,86.5c5.1,2.7,9.5,5.8,13,9.3.7-6.4.6-12.1-.3-18.4-4,3.2-7.2,5.6-10.4,7.6-.4.3-.8.5-1.3.8-.3.2-.7.5-1,.7ZM49.2,77.5s-.1,0-.2,0c-.4,0-.6-.4-.6-.7,0,0,0-.1,0-.2,1.9-9.3,6.2-17.8,12.4-24.7.2-.2.4-.3.7-.2.3,0,.5.2.6.5,2.9,7.2,7.5,14.6,13.8,22.1,0,0,0,0,0,0,.2.2.2.5,0,.7-.1.3-.4.5-.7.5-1.3,0-2.8,0-4.2.1h-1.1c-7.1.3-14.4,1.1-20.7,1.9,0,0-.1,0-.2,0ZM61.2,53.8c-5.4,6.3-9.2,13.9-11.1,22.1,6.1-.7,13-1.5,19.9-1.7h1.1c.9,0,1.8-.1,2.7-.1-5.6-6.8-9.8-13.6-12.6-20.2ZM118.5,65.6c-.2,0-.4,0-.6-.3-.1-.2-.2-.4-.2-.6.2-1.1.4-2.5.6-3.8v-.7c.9-5.6,1.3-11.2,1.6-16.5,0-.4.4-.7.8-.7.1,0,.3,0,.4.1,6.2,3.9,11.6,9.3,15.7,15.6.1.2.2.5,0,.7-.1.2-.3.4-.6.4-6.3.7-12,3.2-17.4,5.7,0,0,0,0,0,0,0,0-.2,0-.3,0ZM121.4,45c-.3,5-.7,10.2-1.4,15.4v.7c-.2.8-.3,1.7-.5,2.5,4.8-2.2,9.8-4.3,15.4-5.1-3.6-5.4-8.2-10-13.5-13.5ZM95.5,59.1c-.2,0-.5-.1-.6-.3-.6-.8-1.3-1.6-2-2.5-.4-.5-.8-1-1.2-1.5-4.1-5.1-8.7-9.9-13-14.4-.2-.2-.2-.4-.2-.7s.2-.4.5-.5c7.6-3,15.9-4,24-2.9.2,0,.5.2.6.4.1.2,0,.5,0,.7-3.2,5.6-5.6,12.5-7.2,21h0c0,0,0,.1,0,.2-.1.2-.3.4-.6.4,0,0,0,0,0,0ZM80.6,40.2c4.1,4.3,8.5,8.8,12.3,13.7.4.5.8,1,1.2,1.5.3.4.7.8,1,1.2,1.5-7.5,3.6-13.7,6.5-18.9-7.1-.9-14.3,0-21.1,2.5Z"/>
  </g>
  <path class="st0" d="M437,52.7l-9.6,68h-12.2v-7.6c-6.1,5.8-12.4,8.7-18.8,8.7s-7.8-1.3-10.1-4c-3.6-4.1-4.7-11.4-3.2-22.2,2.8-20.3,10.4-24.4,21.7-24.4s9.6.4,14.1,1.1l2.8-19.7h15.4ZM410.6,82.5c-8.5,0-10.4,1.1-12,13.5-.9,6.4-1.1,10.4.1,11.8.5.6,1.4.8,2.8.8,4.7,0,8.4-2.6,13.1-6.8l2.7-19.4h-6.7,0ZM272.2,71.3c-8.7,0-14.6,1.8-18.7,5.7-4,3.8-6.4,9.7-7.7,19-1.3,9.2-.2,15.7,3.4,19.9,3.5,4,9.4,6,18.1,6s10.5-.4,16.2-2.2h.4c0-.1,1.6-11.5,1.6-11.5l-1,.2c-3.9.6-8.9.8-14.7.8s-6-.5-7.2-1.8c-1.4-1.6-1.6-4.6-.9-10.6,1.3-11,4.8-12.8,12.4-12.8s14.7.2,14.7.2l1.5-10.8s-6.5-2.1-18.1-2.1M376.4,76.6c2.3,2.7,3.1,6.5,2.4,11.5-1.5,10.2-8.7,12.8-19.8,13.6l-13.2,1c.4,5.5,3.2,6.6,8.7,6.6s16-.6,17.8-1l.7-.2v.8c.5,4,1.9,8.5,1.9,8.5l.2.6-.6.2c-6,2.5-15.5,3.7-21.7,3.7-8.9,0-15-2-18.6-6.1-3.7-4.2-5-10.8-3.9-20.1,2.2-18.2,9.2-24.3,27.8-24.3s15.2,1.7,18.3,5.3M356.8,92.1c4.5-.4,6.6-1.2,7.1-5.5.1-1.5,0-2.4-.5-2.9-.7-.8-2.4-.9-4.8-.9s-.9,0-1.4,0c-7.2,0-9,2.5-10.4,10.2l10-1h0ZM332.1,72.6h-3c-5.6,0-11.1,2.8-18.2,9.3v-9.3h-12.2l-6.7,48.1h15.4l3.7-27.7c1.9-2.5,7.3-5.4,11.3-5.4h3.3v-.5c.1,0,1.5-6.2,5.8-13.5l.6-1h0ZM170.6,70.4c-1.3,9.9,2.2,15.8,11.6,19.6l12.4,4.9c4,1.4,4.8,2.2,4.3,6.1-.8,5-2.7,6.4-11.4,6.4h-21.1l-1.9,13.2h23.6c18.4,0,24.6-4.3,26.5-18.6,1.2-9-.4-15.4-11.7-19.8l-11.8-4.5c-4.6-1.7-5.4-2.4-4.8-6.4.7-4.4,2.3-5.4,5.7-5.6h25.2l1.9-13.2h-22.5c-15.3,0-24,2.8-26.1,17.8M219.2,120.7h15.3l6.7-48.1h-15.3l-6.7,48.1ZM242.2,65.8l1.8-13.2h-15.3l-1.8,13.2h15.3ZM436.7,120.7h15.3l6.7-48.1h-15.3l-6.7,48.1ZM459.7,65.8l1.8-13.2h-15.3l-1.8,13.2h15.3Z"/>
</svg>