<?xml version="1.0" encoding="UTF-8"?>
<svg id="Camada_1" xmlns="http://www.w3.org/2000/svg" version="1.1" viewBox="0 0 510 175">
  <!-- Generator: Adobe Illustrator 29.0.0, SVG Export Plug-In . SVG Version: 2.1.0 Build 186)  -->
  <defs>
    <style>
      .st0 {
        fill: #fff;
        fill-rule: evenodd;
      }
    </style>
  </defs>
  <path class="st0" d="M245.4,42v-3.3h175.6v3.3h-175.6ZM132.2,39.1h38.2c4.4,0,11.3-1.1,14.5,1.2,2.3,1.6,3.5,4.7,4.8,7l7.2,12.3c1.3,2.2,6.3,9.2,5.1,11.6-1,2.1-12.2,3.5-15,3.4-8.5-.1-8.5-15.7-15.1-16.1l-31,.2c-1.3.4-2,1.9-2.6,2.9-1.9,3.2-4.7,10.1-7.9,11.9-2.4,1.5-16.2.1-17.9-1.9-1.2-1.4-.3-3.2.4-4.5,2.4-4.5,14.9-28.1,19-28.1h0c0-.1.1-.1.1-.1ZM273.4,57.1c13.9,0,30.5,6.4,30.5,22.1h-15.7c0-.1-.1-.1-.1-.1-1.7-11.1-18.4-11.6-23.6-2.9-7,11.3-2.4,28.8,12.7,28.8h1.3c0-.1.9-.3.9-.3,4.4-1.9,7.5-3.7,8.6-8.8l.3-1.7h0c0-.1,15.7-.1,15.7-.1-1.6,24.6-34,31.6-49.8,15.3-12.9-13.2-10.8-38.8,5.7-48.1,3.2-1.7,7.2-3.8,11.1-3.8h1c0-.1,1.5-.4,1.5-.4v.2ZM333.9,57.1c12.7,0,26.9,4.3,26.9,18.7h-15.7c-.7-10.6-21-7.8-17.2-.4,1.4,2.6,5.4,3.4,8,4,10.4,2.8,26.7,4.5,26.9,18.7,0,4.8-1.1,9.1-4.2,12.3-10.5,11.5-39.4,10.5-46.8-3.9-.7-1.2-2.9-7.5-1.6-8.8,1-1,13.1-.4,15.5-.4.2,7.5,6.4,9.1,13.2,9.1h1.2c0-.1.9-.3.9-.3,2.6-1,5.9-2,6-5.4.3-6.6-17.4-8.6-22.2-10.4-3.5-1.3-7.1-2.9-9.7-6-9.7-11.4,2.4-26.7,15.2-26.7h1c0-.1,1.1-.3,1.1-.3l1.7-.2h-.2ZM368.2,58.2c2.7,0,14.6-.7,16.1.3,2.1,1.3,3.5,5.4,4.7,7.4l16.6,28,.2.4h.3v-27c0-2.4-.8-6.7.3-8.6v-.2c1.5-1.1,11.9-.4,14.4-.4v58.6c-2.7,0-14.6.7-16.2-.3-1.6-1-4-6.3-5.1-8.2l-16.2-27.7v-.2h-.3v36.5h-15v-58.6h.1ZM95.5,77.5h34.5c4.6,0,11.4-1.1,15,1.3,3.7,2.4,4,9.7,2.7,14-.7,2.1-2.4,3.9-4.6,4.5-4.4,1.2-10.6.3-15.5.3h-31.7c-1.6-.2-2.9-.8-4.2-1.6-3.2-2.4-2.9-8.1-2.4-12.2.4-3.7,2.9-5.2,6.1-6.3h0ZM173.3,77.5h34.5c4.6,0,11.4-1,14.9,1.2,3.7,2.4,4,9.7,2.7,14.1-.7,2.1-2.4,3.8-4.5,4.5-4.8,1.3-11.6.3-16.7.3h-30.5c-1.5-.2-2.9-.8-4.2-1.6-3.1-2.4-2.9-8.3-2.4-12.3.5-3.6,2.9-5.1,6.1-6.1h0ZM126.5,100.2c10.1.3,8.7,16.1,16.6,16.2h22.7c2.3,0,6,.7,8-.3,1.4-.7,2.2-2.7,2.8-4,5.2-9,4.7-12.9,17-10.8,2.6.4,9.3.2,8.6,4.3-.4,2.7-15.5,28.1-17.7,29.5-2.9,1.7-51.5,1.9-54.5,0-2.2-1.3-17.5-26.9-17.9-29.6-.3-2,1.5-3.3,3.4-3.3h.9c0-.1,1-.2,1-.2h.9c0-.1,1-.3,1-.3h.9c0-.1,1-.3,1-.3h.9c0-.1,1-.3,1-.3l1.7-.3h1c0-.1.9-.4.9-.4h-.1ZM245.4,135.2v-3.2h175.6v3.2h-175.6Z"/>
</svg>