<?xml version="1.0" encoding="UTF-8"?>
<svg id="Camada_1" xmlns="http://www.w3.org/2000/svg" version="1.1" xmlns:xlink="http://www.w3.org/1999/xlink" viewBox="0 0 510 175">
  <!-- Generator: Adobe Illustrator 29.0.0, SVG Export Plug-In . SVG Version: 2.1.0 Build 186)  -->
  <defs>
    <style>
      .st0 {
        fill: url(#Gradiente_sem_nome_47);
      }

      .st1 {
        fill: #fff;
      }

      .st2 {
        fill: url(#Gradiente_sem_nome_55);
      }

      .st3 {
        fill: url(#Gradiente_sem_nome_40);
      }

      .st4 {
        fill: url(#Gradiente_sem_nome_44);
      }
    </style>
    <linearGradient id="Gradiente_sem_nome_55" data-name="Gradiente sem nome 55" x1="-675.7" y1="587" x2="-675.1" y2="587.8" gradientTransform="translate(24580.7 15506.3) scale(36.1 -26.2)" gradientUnits="userSpaceOnUse">
      <stop offset=".3" stop-color="#fff"/>
      <stop offset="1" stop-color="#fff" stop-opacity="0"/>
    </linearGradient>
    <linearGradient id="Gradiente_sem_nome_44" data-name="Gradiente sem nome 44" x1="-643.1" y1="586.9" x2="-642.5" y2="587.9" gradientTransform="translate(23569.3 15507.4) scale(36.1 -26.2)" gradientUnits="userSpaceOnUse">
      <stop offset=".3" stop-color="#fff"/>
      <stop offset="1" stop-color="#fff" stop-opacity="0"/>
    </linearGradient>
    <linearGradient id="Gradiente_sem_nome_47" data-name="Gradiente sem nome 47" x1="-613.7" y1="597.1" x2="-613.3" y2="596.8" gradientTransform="translate(17743 20098.3) scale(28.3 -33.5)" gradientUnits="userSpaceOnUse">
      <stop offset="0" stop-color="#fff"/>
      <stop offset="1" stop-color="#fff" stop-opacity="0"/>
    </linearGradient>
    <linearGradient id="Gradiente_sem_nome_40" data-name="Gradiente sem nome 40" x1="-647" y1="607.5" x2="-647" y2="606.8" gradientTransform="translate(18952.3 19968.6) scale(28.9 -32.7)" gradientUnits="userSpaceOnUse">
      <stop offset="0" stop-color="#fff"/>
      <stop offset="1" stop-color="#fff" stop-opacity="0"/>
    </linearGradient>
  </defs>
  <path class="st1" d="M180.1,93.1h12.2c-1.4-8.2-5.4-15.7-11.3-21.5l-8.3,8.5c3.6,3.6,6.2,8.1,7.4,13h0Z"/>
  <path class="st1" d="M153.6,72.3c7.4,0,14.4,2.9,19.6,8.2l8.4-8.4c-7.3-7.4-17.3-11.6-27.8-11.6h-.4v11.8h.2Z"/>
  <path class="st1" d="M153.6,72.3v-11.8c-10.5,0-20.6,4.3-28,11.8l8.4,8.2c5.2-5.2,12.2-8.2,19.6-8.2Z"/>
  <path class="st1" d="M126.2,99.7c0-7.3,2.9-14.3,8.1-19.5l-8.3-8.3c-7.5,7.3-11.6,17.3-11.5,27.8v.4h11.8v-.4Z"/>
  <path class="st1" d="M126.2,98.5h-11.8c0,10.6,4.3,20.7,11.8,28.2l8.2-8.4c-5.3-5.2-8.2-12.4-8.2-19.8Z"/>
  <path class="st1" d="M153.6,126.1c-7.3,0-14.3-2.9-19.4-8.1l-8.3,8.3c7.3,7.3,17.2,11.5,27.6,11.5h.4v-11.7h-.2Z"/>
  <path class="st2" d="M175.2,115.4c-5.2,6.9-13.3,10.8-21.9,10.7v11.8c12.2,0,23.7-5.7,31.1-15.4l-9.2-7.1Z"/>
  <path class="st1" d="M349.4,92.9h12c-1.4-8.1-5.3-15.5-11.2-21.3l-8.2,8.4c3.5,3.6,6.1,8,7.3,12.9h0Z"/>
  <path class="st1" d="M322.9,72.3c7.4,0,14.4,2.9,19.6,8.2l8.4-8.4c-7.3-7.4-17.3-11.6-27.8-11.6h-.4v11.8h.2Z"/>
  <path class="st1" d="M323.2,72.3v-11.8c-10.5,0-20.6,4.3-28,11.8l8.4,8.2c5.2-5.2,12.2-8.2,19.6-8.2Z"/>
  <path class="st1" d="M295.8,99.7c0-7.4,2.9-14.4,8.2-19.6l-8.4-8.4c-7.4,7.3-11.6,17.3-11.6,27.8v.4h11.8v-.2Z"/>
  <path class="st1" d="M295.8,98.6h-11.8c0,10.6,4.3,20.7,11.8,28.2l8.2-8.4c-5.2-5.3-8.1-12.4-8.2-19.8Z"/>
  <path class="st1" d="M323.2,126.2c-7.4,0-14.4-2.9-19.6-8.2l-8.2,8.4c7.3,7.4,17.3,11.6,27.8,11.6h.4v-11.8h-.4Z"/>
  <path class="st4" d="M344.5,115.4c-5.2,6.9-13.3,10.9-21.9,10.8v11.8c12.3,0,23.8-5.7,31.2-15.5l-9.3-7.1Z"/>
  <path class="st1" d="M373,76.8h11.8v35.5h-11.8v-35.5Z"/>
  <path class="st0" d="M384.9,111.5c0,8.4,3.9,12,10.8,16.8l-6.7,9.7c-10.1-6.7-15.9-14-15.9-26.5h11.8Z"/>
  <path class="st1" d="M241.1,60.6c-9.8,0-19.1,3.9-26,10.8v23.9c1.5-9.5,9.9-23,26-23h.9v-11.8c-.3.2-.6.2-.9.2Z"/>
  <path class="st3" d="M273.3,96.9h-11.8v-3.9c0-11.4-9.1-20.7-20.4-20.9v-11.8c17.9,0,32.3,14.6,32.3,32.5v4.1Z"/>
  <path class="st1" d="M203.4,63.6h11.8v41.1h-11.8v-41.1ZM373,37h11.8v41.1h-11.8v-41.1ZM261.6,95.6h11.8v41.1h-11.8v-41.1ZM151.2,92.5h41.1v11.8h-41.1v-11.8ZM320.3,92.5h41.1v11.8h-41.1v-11.8Z"/>
</svg>