<?xml version="1.0" encoding="UTF-8"?>
<svg id="Camada_2" data-name="Camada 2" xmlns="http://www.w3.org/2000/svg" version="1.1" viewBox="0 0 510 175">
  <defs>
    <style>
      .cls-1 {
        fill: #fff;
        stroke-width: 0px;
      }
    </style>
  </defs>
  <g>
    <path class="cls-1" d="M450.1,84.5c22.7-21,7.9-58.9-23-58.9h-39.1c-2.9,0-4.3,3.6-2.2,5.6l61.1,56.4,3.2-3Z"/>
    <path class="cls-1" d="M450.7,91l-3.8-3.5h0l-23.4-21.6c10.6,13.6,11.1,32.8-2.9,45.8l-34.8,32.1c-2.2,2-.7,5.6,2.2,5.6h39.8c30.7,0,45.4-37.6,22.8-58.4Z"/>
  </g>
  <g>
    <path class="cls-1" d="M74.2,118.5h-24.1c-1.1,0-1.7-.6-1.7-1.7v-58.9c0-1.1.6-1.7,1.7-1.7h22.8c5.5,0,9.8,1.2,13,3.7,3.7,2.7,5.6,7,5.6,11.9s-1.3,7-3.7,9.3c-.9.9-1.9,1.6-3,2.2,2.6.7,4.8,2,6.6,3.7,3.2,3,4.9,7.1,4.9,12s-2.2,11.2-6.5,14.7c-3.9,3.2-9.2,4.7-15.7,4.7ZM59.4,65.8v14.8h12.6c2.6,0,4.6-.5,6.2-1.7,1.7-1.2,2.7-3.2,2.7-5.6s-.9-4.5-2.7-5.7c-1.6-1.1-3.6-1.7-6.4-1.7h-12.4ZM59.4,89.5v19.4h14.4c3.5,0,6.2-.7,8.2-2.4,2.2-1.7,3.4-4.3,3.4-7.5s-1.1-5.6-3.2-7.2c-1.9-1.6-4.6-2.2-7.9-2.2h-15Z"/>
    <path class="cls-1" d="M111.1,118.5h-7.4c-1.1,0-1.7-.6-1.7-1.7v-28.3c0-4.2,1.2-7.3,3.6-9.5,2.2-2,5.6-3.1,9.8-3.1h9.7c1.1,0,1.7.6,1.7,1.7v6.4c0,1.1-.6,1.7-1.7,1.7h-7.5c-3.3,0-4.9,1.6-4.9,4.8v26.4c0,1.1-.6,1.7-1.7,1.7Z"/>
    <path class="cls-1" d="M163.7,112.2c-3.7,4.6-9,7.5-15.2,7.5s-11-2.4-14.9-6.9c-3.6-4.1-5.4-9.5-5.4-15.7s1.9-11.4,5.4-15.6c3.8-4.5,9-6.8,14.9-6.8s11.5,2.7,15.2,7.3l.6-4.6c.2-1.1.7-1.6,1.7-1.6h5.6c1.1,0,1.7.6,1.7,1.7v39.2c0,1.1-.6,1.7-1.7,1.7h-5.6c-1,0-1.7-.5-1.7-1.6l-.6-4.6ZM142.3,106.3c2.2,2.4,5.3,3.8,8.8,3.8s6.6-1.4,8.8-3.8c2.1-2.4,3.3-5.6,3.3-9.1s-1.2-6.6-3.3-9c-2.3-2.4-5.3-3.8-8.8-3.8s-6.6,1.3-8.8,3.7c-2.1,2.4-3.3,5.6-3.3,9s1.2,6.7,3.3,9.1Z"/>
    <path class="cls-1" d="M179,116.8v-6.4c0-1.1.6-1.7,1.7-1.7h17.7c1.2,0,2.2-.3,2.9-1,.4-.4.7-1.2.7-1.9s-.2-1.4-.8-2-.8-.7-1.4-.9l-12.3-5.3c-2.3-1-4.1-2.2-5.5-3.5-2-2-2.9-4.4-2.9-7.3s1-5.5,2.9-7.4c2.2-2.2,5.8-3.6,10.4-3.6h15.3c1.1,0,1.7.6,1.7,1.7v6.4c0,1.1-.6,1.7-1.7,1.7h-14.5c-1,0-1.7.3-2.2.7-.3.3-.5.7-.5,1.3s.2.9.5,1.2c.3.3.9.7,1.7,1l11,4.7c2.3,1,4.1,2.2,5.4,3.5,2.1,2.1,3.1,4.6,3.1,7.8s-1.3,6.4-3.4,8.6c-2.4,2.4-6.1,3.9-10.5,3.9h-17.5c-1.1,0-1.7-.6-1.7-1.7Z"/>
    <path class="cls-1" d="M226.8,118.5h-7.4c-1.1,0-1.7-.6-1.7-1.7v-58.9c0-1.1.6-1.7,1.7-1.7h7.4c1.1,0,1.7.6,1.7,1.7v34h.9l13.6-14.8c.7-.9,1.2-1.2,2.5-1.2h9.4c.7,0,1.1.9.7,1.5l-17.2,18.3,18.2,21.4c.4.6.2,1.4-.7,1.4h-9c-1.6,0-2.5-.4-3.4-1.5l-13.8-16.4h-1.2v16.3c0,1.1-.6,1.7-1.7,1.7Z"/>
    <path class="cls-1" d="M278.3,119.7c-6.3,0-11.9-2.3-16.1-6.6-4.1-4.2-6.3-10-6.3-16.3s2.2-11.5,6.5-15.7c4.1-4.2,9.8-6.5,15.8-6.5s11.9,2.3,15.8,6.6c3.8,4.2,6,9.9,6,16.1v.7c0,.9-.7,1.6-1.4,1.6h-32.9c.4,2.7,1.5,5,3.2,6.9,2.2,2.4,5.5,3.7,9.5,3.7s8.6-2,10.7-5.5c.4-.7,1-1.2,1.9-1.2h6.6c1.1,0,1.7.8,1.4,2.1-1.6,4.2-4.2,7.8-8,10.2-3.6,2.4-8,3.7-12.5,3.7ZM266.4,91.7h23.1c-1.3-5-5.3-7.8-11.3-7.8s-7,1.2-9.3,3.7c-1.1,1.2-2,2.6-2.6,4.1Z"/>
    <path class="cls-1" d="M314.8,118.5h-7.4c-1.1,0-1.7-.6-1.7-1.7v-39.2c0-1.1.6-1.7,1.7-1.7h4.5c1.2,0,1.9.6,2.2,1.8l.8,4.3c2.9-4.5,7.6-6.7,14-6.7h2c4.6,0,8.3,1.6,10.9,4.6.7.7,1.2,1.7,1.8,2.7,2.8-4.8,7.6-7.2,14.3-7.2h2c4.6,0,8.3,1.6,10.9,4.6,2.4,2.7,3.7,6.6,3.7,11.3v25.6c0,1.1-.6,1.7-1.7,1.7h-7.5c-1.1,0-1.7-.6-1.7-1.7v-23.5c0-5.3-2.7-8.3-7.3-8.3h-2.4c-5.2,0-8.5,3.4-8.5,9.3v22.5c0,1.1-.6,1.7-1.7,1.7h-7.5c-1.1,0-1.7-.6-1.7-1.7v-23.5c0-5.3-2.7-8.3-7.3-8.3h-2.4c-5.2,0-8.5,3.4-8.5,9.3v22.5c0,1.1-.6,1.7-1.7,1.7Z"/>
  </g>
</svg>