<?xml version="1.0" encoding="UTF-8"?>
<svg id="Camada_1" xmlns="http://www.w3.org/2000/svg" version="1.1" viewBox="0 0 510 175">
  <!-- Generator: Adobe Illustrator 29.0.0, SVG Export Plug-In . SVG Version: 2.1.0 Build 186)  -->
  <defs>
    <style>
      .st0 {
        fill: #fff;
      }
    </style>
  </defs>
  <path class="st0" d="M112,74.1c1.9-7.8,2.8-15.7,2.6-23.7v-.2c13.9-1.5,29.4-3.2,38.3-9.4h0c1.2,7.9,2.6,20.7-13,42.6-15.7,22.1-40.4,34-60.8,40.5h0c4.9-3.9,9.4-8.2,13.5-12.9,9.4-10.7,16.1-23.3,19.5-36.9ZM106.5,51.1h0c-19,1.9-32.4,8-40.8,18.5-9.4,11.7-12.5,29.1-9.7,53.2.2,2.2.5,4.1.7,5.3h0c10.2-4.8,50-27.5,49.8-77.1h0ZM158.6,65.8c-3,8-6.9,15.7-12,22.6-16.1,22.2-39.9,34.4-57.1,40.7-5.6,2.1-10.8,3.6-15.3,4.8h0c13.6.8,26.1-.5,37-3.7,12.4-3.6,22.8-9.7,30.7-18,11.8-12.1,17.5-28.4,16.8-46.4h0Z"/>
  <path class="st0" d="M212.3,84.5c-4.1-2.5-9-4-13.9-4s-9.6,2.5-9.6,6.3,3.1,5,8.3,5.7l5,.6c9.1,1.3,14.6,5.1,14.6,12.2s-7.4,13.5-19,13.5-12.4-1.3-18.1-5.5l3.5-5.5c3.2,2.5,7.5,4.6,14.7,4.6s11.4-2.3,11.4-6.6-2.8-5.2-8.6-5.9l-5-.6c-9.6-1.2-14.3-5.5-14.3-12s6.9-13.2,17.3-13.2,13,1.8,17.2,4.7l-3.3,5.8Z"/>
  <path class="st0" d="M261.8,99.9c0,13-9.3,19-19.6,19s-19.6-5.9-19.6-19v-25h7.4v24.3c0,8.8,5.2,12.7,12.3,12.7s12.2-3.9,12.2-12.7v-24.3h7.4v25h0Z"/>
  <path class="st0" d="M305.5,80.3l-26.5,31h26.9v6.8h-36.7v-5.4l26.8-30.9h-26.1v-6.8h35.5v5.3h0Z"/>
  <path class="st0" d="M353.6,118h-7.4v-5.8c-3.4,4.1-8.5,6.7-15.1,6.7-12.1,0-21.5-9.4-21.5-22.4s9.4-22.4,21.5-22.4,11.8,2.6,15.1,6.7v-5.8h7.4v43.1ZM317,96.5c0,8.5,6,15.5,14.8,15.5s14.8-6.7,14.8-15.5-6.1-15.4-14.8-15.4c-9,0-14.8,6.8-14.8,15.4h0Z"/>
  <path class="st0" d="M403.1,91.3v26.7h-7.4v-24.4c0-8-4.3-12.6-11.8-12.6s-12.7,4.7-12.7,12.8v24.1h-7.4v-43h7.4v5.6c3.6-4.8,9.1-6.5,14-6.5,10.7,0,17.9,6.9,17.9,17.3Z"/>
  <path class="st0" d="M455.1,96.4c0,12.8-9.7,22.4-22.8,22.4s-22.8-9.6-22.8-22.4,9.6-22.4,22.8-22.4c13,0,22.8,9.6,22.8,22.4ZM417.2,96.4c0,9,6.5,15.5,15.1,15.5s15.1-6.4,15.1-15.5-6.6-15.4-15.1-15.4-15.1,6.4-15.1,15.4h0Z"/>
</svg>