<?xml version="1.0" encoding="UTF-8"?>
<svg id="Camada_1" xmlns="http://www.w3.org/2000/svg" version="1.1" viewBox="0 0 510 175">
  <!-- Generator: Adobe Illustrator 29.0.0, SVG Export Plug-In . SVG Version: 2.1.0 Build 186)  -->
  <defs>
    <style>
      .st0 {
        fill: #fff;
        fill-rule: evenodd;
      }
    </style>
  </defs>
  <path class="st0" d="M417.6,47.5c0,4.5-1.6,11.6-6.5,16.6-1.3,1.4-2.8,2.6-4.5,3.6-2.3,1.5-4,2.6-3.1,5.1s3.8,1.7,6.5,1.1c.9-.2,18-4.4,18.2-4.4,4.6-.9,9.1,2,10.2,6.6l1.4,5.8c1.1,4.5-1.5,9.1-6,10.5-.2,0-18.9,4.6-18.9,4.7-3.6.9-5.6,2.7-5.6,6.1,0,1.5.9,3.2,2,4.6,0,0,20.4,25.2,20.5,25.4,2.8,3.8,2.1,9-1.5,12l-4.6,3.8c-3.6,3-8.9,2.5-12-.9-.2-.1-12.8-15.7-14.2-17.3s-3-4.2-5.4-4.1-4,2.5-5.4,4.2-13.9,17.3-14.1,17.4c-3.1,3.5-8.4,3.9-12,1,0,0-4.6-3.7-4.6-3.8-3.6-2.9-4.3-8.2-1.6-12,0-.2,20.4-25.5,20.4-25.5,1.1-1.4,2-3.1,2-4.6,0-3.4-2.1-5.2-5.7-6.1,0,0-18.8-4.5-19-4.6-4.5-1.3-7.1-5.9-6.1-10.5,0,0,1.4-5.8,1.4-5.8,1.1-4.5,5.5-7.4,10.1-6.6.2,0,17.4,4.1,18.2,4.3,2.7.6,5.6,1.4,6.5-1.1s-.8-3.6-3.1-5.1c-1.6-1-3.1-2.2-4.5-3.6-5-5-6.6-12-6.6-16.5,0-12.9,10.7-23.5,23.6-23.5s23.8,10.5,23.8,23.4h0ZM103.2,125.9c-3-.2-5.7-1.8-7.1-4.5l-25.2-44.7c-2.6-4.7.5-8.8,3.1-9.8l6.7-3c3.7-1.6,7.9.1,9.5,3.8,0,0,0,0,0,0l15.8,31.8h.2l15.8-31.8c1.5-3.7,5.8-5.4,9.5-3.9,0,0,0,0,0,0l6.7,3c2.7,1,5.7,5,3.1,9.8l-25.2,44.7c-1.4,2.6-4.1,4.3-7.1,4.5h-6.1ZM213.7,125.9c-3-.2-5.7-1.8-7.1-4.5l-25.2-44.7c-2.6-4.7.5-8.8,3.2-9.8l6.7-3c3.7-1.6,7.9.1,9.5,3.8,0,0,0,0,0,0l15.8,31.8h.2l15.8-31.8c1.5-3.7,5.8-5.4,9.5-3.9,0,0,0,0,0,0l6.7,3c2.7,1,5.7,5,3.2,9.8l-25.2,44.7c-1.4,2.6-4.1,4.3-7.1,4.5h-6.1ZM287.6,63.6c17.4,0,31.5,14,31.6,31.4,0,17.4-14,31.5-31.4,31.6-17.4,0-31.5-14-31.6-31.4,0,0,0,0,0,0,0-17.4,14-31.5,31.4-31.5h0ZM173.8,45.6c0,6.8-5.5,12.3-12.3,12.3s-12.3-5.5-12.3-12.3h0c0-6.8,5.5-12.3,12.3-12.3s12.3,5.5,12.3,12.3ZM287.6,107.5c6.9,0,12.5-5.5,12.5-12.4,0-6.9-5.5-12.5-12.4-12.5-6.9,0-12.5,5.5-12.5,12.4,0,0,0,0,0,0h0c0,6.9,5.5,12.4,12.4,12.4ZM150.8,71.8c0-4.2,3.4-7.6,7.6-7.6h6.4c4.2,0,7.6,3.4,7.6,7.6v46.5c0,4.2-3.4,7.6-7.6,7.6,0,0,0,0,0,0h-6.4c-4.2,0-7.6-3.4-7.6-7.6h0v-46.5h0Z"/>
</svg>